<svg width="24" height="24" viewBox="0 0 24 24" fill="none" xmlns="http://www.w3.org/2000/svg">
<path d="M16 12.9V17.1C16 20.6 14.6 22 11.1 22H6.9C3.4 22 2 20.6 2 17.1V12.9C2 9.4 3.4 8 6.9 8H11.1C14.6 8 16 9.4 16 12.9Z" fill="#0A112F"/>
<path d="M17.0998 2H12.8998C9.81668 2 8.37074 3.09409 8.06951 5.73901C8.00649 6.29235 8.46476 6.75 9.02167 6.75H11.0998C15.2998 6.75 17.2498 8.7 17.2498 12.9V14.9781C17.2498 15.535 17.7074 15.9933 18.2608 15.9303C20.9057 15.629 21.9998 14.1831 21.9998 11.1V6.9C21.9998 3.4 20.5998 2 17.0998 2Z" fill="#0A112F"/>
<path d="M12.8998 2.5H17.0998C18.8005 2.5 19.8609 2.8432 20.5087 3.49105C21.1566 4.13891 21.4998 5.19931 21.4998 6.9V11.1C21.4998 12.5962 21.2317 13.5965 20.726 14.2533C20.2325 14.8941 19.4461 15.292 18.2042 15.4335C17.9832 15.4586 17.7498 15.2736 17.7498 14.9781V12.9C17.7498 10.7323 17.2472 9.04033 16.1033 7.89645C14.9594 6.75257 13.2675 6.25 11.0998 6.25H9.02167C8.7262 6.25 8.54113 6.01659 8.5663 5.79559C8.70774 4.55368 9.1057 3.76727 9.74651 3.27381C10.4032 2.76809 11.4036 2.5 12.8998 2.5Z" stroke="#0A112F"/>
</svg>
